<?xml version="1.0" encoding="UTF-8"?>
<svg xmlns="http://www.w3.org/2000/svg" xmlns:xlink="http://www.w3.org/1999/xlink" width="125px" height="95px" viewBox="0 0 125 95" version="1.1">
<g id="surface1">
<path style=" stroke:none;fill-rule:nonzero;fill:rgb(0%,0%,0%);fill-opacity:1;" d="M 45.019531 23.398438 C 44.980469 23.511719 45.027344 54.007812 45.066406 54.121094 C 45.074219 54.132812 46.78125 52.449219 48.863281 50.378906 L 52.652344 46.605469 L 52.652344 44.203125 C 52.652344 42.882812 52.6875 41.800781 52.726562 41.800781 C 52.773438 41.800781 54.992188 43.996094 57.652344 46.664062 L 62.5 51.539062 L 67.347656 46.664062 C 70.019531 43.996094 72.234375 41.800781 72.273438 41.800781 C 72.3125 41.800781 72.347656 42.863281 72.347656 44.15625 L 72.347656 46.523438 L 76.136719 50.320312 C 78.21875 52.410156 79.925781 54.09375 79.925781 54.066406 C 79.933594 54.027344 79.925781 23.929688 79.925781 23.273438 C 79.925781 23.257812 76.023438 27.140625 71.257812 31.921875 C 66.496094 36.699219 62.546875 40.613281 62.5 40.613281 C 62.453125 40.613281 58.511719 36.707031 53.75 31.929688 C 47.414062 25.59375 45.066406 23.285156 45.019531 23.398438 Z M 54.613281 35.167969 C 58.902344 39.472656 62.453125 42.988281 62.5 42.988281 C 62.546875 42.988281 66.097656 39.472656 70.386719 35.167969 C 74.667969 30.875 78.210938 27.359375 78.25 27.359375 C 78.285156 27.359375 78.3125 32.441406 78.3125 38.664062 C 78.3125 44.878906 78.285156 49.96875 78.25 49.96875 C 78.210938 49.96875 77.246094 49.039062 76.117188 47.910156 L 74.054688 45.835938 L 74.054688 41.78125 C 74.054688 39.539062 74.023438 37.714844 73.988281 37.714844 C 73.9375 37.714844 71.34375 40.289062 68.210938 43.433594 L 62.5 49.164062 L 56.789062 43.433594 C 53.65625 40.289062 51.0625 37.714844 51.011719 37.714844 C 50.976562 37.714844 50.945312 39.539062 50.945312 41.773438 L 50.945312 45.835938 L 48.890625 47.898438 C 47.753906 49.039062 46.800781 49.96875 46.761719 49.96875 C 46.714844 49.96875 46.6875 44.878906 46.6875 38.664062 C 46.6875 32.441406 46.714844 27.359375 46.75 27.359375 C 46.789062 27.359375 50.320312 30.875 54.613281 35.167969 Z M 54.613281 35.167969 "/>
<path style=" stroke:none;fill-rule:nonzero;fill:rgb(0%,0%,0%);fill-opacity:1;" d="M 65.4375 68.113281 L 65.4375 76.191406 L 68.929688 76.191406 L 68.957031 72.835938 C 68.996094 68.988281 68.96875 69.113281 69.875 68.199219 C 70.484375 67.601562 70.898438 67.382812 71.636719 67.296875 C 72.246094 67.222656 72.878906 67.476562 73.183594 67.90625 C 73.503906 68.351562 73.578125 69.234375 73.578125 72.835938 L 73.578125 76.191406 L 77.195312 76.191406 L 77.148438 72.21875 C 77.113281 67.8125 77.082031 67.59375 76.457031 66.394531 C 75.074219 63.765625 71.230469 63.394531 69.460938 65.730469 C 69.203125 66.0625 69.070312 66.175781 69.015625 66.089844 C 68.976562 66.035156 68.9375 64.636719 68.9375 63.003906 L 68.9375 60.039062 L 65.4375 60.039062 Z M 65.4375 68.113281 "/>
<path style=" stroke:none;fill-rule:nonzero;fill:rgb(0%,0%,0%);fill-opacity:1;" d="M 57.292969 62.9375 L 57.292969 64.304688 L 56.46875 64.335938 L 55.632812 64.363281 L 55.625 65.644531 C 55.625 66.347656 55.644531 67.003906 55.664062 67.089844 C 55.691406 67.222656 55.832031 67.261719 56.476562 67.277344 L 57.246094 67.308594 L 57.300781 70.441406 C 57.347656 73.386719 57.367188 73.617188 57.566406 74.195312 C 58.152344 75.867188 59.289062 76.484375 61.488281 76.34375 C 62.015625 76.3125 62.671875 76.226562 62.925781 76.160156 L 63.398438 76.039062 L 63.429688 74.535156 L 63.457031 73.027344 L 63.097656 73.082031 C 62.007812 73.253906 61.675781 73.265625 61.390625 73.121094 C 60.910156 72.863281 60.878906 72.675781 60.910156 69.871094 L 60.9375 67.308594 L 62.148438 67.277344 L 63.351562 67.25 L 63.351562 65.882812 C 63.351562 65.121094 63.351562 64.476562 63.351562 64.429688 C 63.351562 64.390625 62.804688 64.351562 62.121094 64.335938 L 60.890625 64.304688 L 60.890625 61.558594 L 57.292969 61.558594 Z M 57.292969 62.9375 "/>
<path style=" stroke:none;fill-rule:nonzero;fill:rgb(0%,0%,0%);fill-opacity:1;" d="M 25.253906 64.230469 C 24.203125 64.382812 23.285156 64.960938 22.679688 65.863281 L 22.359375 66.347656 L 22.328125 65.351562 L 22.300781 64.363281 L 18.796875 64.363281 L 18.796875 76.140625 L 20.566406 76.171875 L 22.339844 76.191406 L 22.367188 72.703125 L 22.394531 69.207031 L 22.632812 68.75 C 22.953125 68.113281 23.550781 67.59375 24.15625 67.410156 C 24.773438 67.222656 25.039062 67.222656 25.605469 67.394531 C 26.242188 67.582031 26.648438 67.945312 26.960938 68.5625 L 27.226562 69.113281 L 27.273438 72.628906 L 27.320312 76.140625 L 29.101562 76.171875 L 30.871094 76.191406 L 30.871094 69.472656 L 31.164062 68.894531 C 31.65625 67.90625 32.605469 67.261719 33.578125 67.261719 C 34.035156 67.261719 34.867188 67.601562 35.152344 67.90625 C 35.292969 68.046875 35.492188 68.390625 35.597656 68.664062 C 35.785156 69.140625 35.796875 69.351562 35.796875 72.675781 L 35.796875 76.191406 L 39.414062 76.191406 L 39.375 72.265625 C 39.328125 67.980469 39.308594 67.828125 38.730469 66.625 C 38.191406 65.53125 37.179688 64.667969 36.0625 64.351562 C 35.371094 64.164062 33.890625 64.152344 33.257812 64.34375 C 32.140625 64.683594 30.84375 65.636719 30.4375 66.425781 C 30.273438 66.738281 30.152344 66.765625 30.066406 66.5 C 30.039062 66.40625 29.746094 66.042969 29.421875 65.710938 C 28.703125 64.96875 27.566406 64.363281 26.734375 64.265625 C 26.429688 64.238281 26.097656 64.199219 25.996094 64.183594 C 25.890625 64.164062 25.558594 64.191406 25.253906 64.230469 Z M 25.253906 64.230469 "/>
<path style=" stroke:none;fill-rule:nonzero;fill:rgb(0%,0%,0%);fill-opacity:1;" d="M 45.898438 64.277344 C 43.625 64.769531 41.894531 66.507812 41.421875 68.78125 C 41.191406 69.863281 41.277344 71.542969 41.609375 72.53125 C 42.300781 74.566406 43.929688 75.960938 46.070312 76.351562 C 46.78125 76.484375 47.035156 76.492188 47.679688 76.398438 C 48.570312 76.265625 49.527344 75.828125 49.828125 75.421875 C 49.941406 75.269531 50.066406 75.144531 50.113281 75.144531 C 50.152344 75.144531 50.1875 75.382812 50.1875 75.667969 L 50.1875 76.191406 L 51.96875 76.171875 L 53.742188 76.140625 L 53.742188 64.363281 L 51.96875 64.335938 L 50.1875 64.316406 L 50.1875 64.835938 C 50.1875 65.121094 50.160156 65.359375 50.132812 65.359375 C 50.09375 65.359375 49.925781 65.238281 49.753906 65.074219 C 49.289062 64.667969 48.75 64.417969 48.019531 64.257812 C 47.246094 64.097656 46.734375 64.097656 45.898438 64.277344 Z M 48.769531 67.5625 C 49.316406 67.800781 49.667969 68.144531 49.980469 68.734375 C 50.21875 69.167969 50.238281 69.300781 50.238281 70.300781 C 50.238281 71.296875 50.21875 71.429688 49.980469 71.867188 C 49.480469 72.816406 48.722656 73.265625 47.585938 73.265625 C 46.742188 73.265625 46.109375 73.015625 45.566406 72.457031 C 44.972656 71.847656 44.78125 71.308594 44.78125 70.289062 C 44.78125 69.339844 45 68.714844 45.519531 68.144531 C 46.289062 67.328125 47.660156 67.078125 48.769531 67.5625 Z M 48.769531 67.5625 "/>
<path style=" stroke:none;fill-rule:nonzero;fill:rgb(0%,0%,0%);fill-opacity:1;" d="M 84.082031 64.257812 C 81.949219 64.714844 80.132812 66.175781 79.449219 68 C 78.589844 70.289062 78.996094 72.648438 80.550781 74.375 C 82.765625 76.828125 87.433594 77.167969 89.867188 75.058594 L 90.292969 74.6875 L 89.347656 73.777344 C 88.296875 72.761719 88.351562 72.769531 87.359375 73.160156 C 86.882812 73.339844 86.609375 73.378906 85.699219 73.378906 C 84.734375 73.378906 84.554688 73.347656 84.089844 73.132812 C 83.53125 72.875 82.9375 72.285156 82.773438 71.808594 L 82.679688 71.535156 L 90.890625 71.535156 L 90.945312 71.316406 C 91.050781 70.9375 91.003906 69.21875 90.871094 68.597656 C 90.683594 67.746094 90.066406 66.546875 89.5 65.949219 C 88.152344 64.542969 85.964844 63.867188 84.082031 64.257812 Z M 86.390625 67.476562 C 86.855469 67.667969 87.625 68.429688 87.71875 68.78125 C 87.765625 68.96875 87.738281 68.96875 85.265625 68.96875 C 82.40625 68.96875 82.472656 69 83.210938 68.199219 C 84.128906 67.210938 85.199219 66.976562 86.390625 67.476562 Z M 86.390625 67.476562 "/>
<path style=" stroke:none;fill-rule:nonzero;fill:rgb(0%,0%,0%);fill-opacity:1;" d="M 92.546875 64.476562 C 92.585938 64.609375 94.621094 69.21875 95.644531 71.488281 C 96.117188 72.53125 96.324219 73.015625 96.589844 73.625 C 96.761719 74.015625 97.046875 74.652344 97.226562 75.039062 C 97.507812 75.648438 97.546875 75.789062 97.460938 76.039062 C 97.40625 76.199219 96.933594 77.261719 96.410156 78.402344 C 95.878906 79.554688 95.453125 80.503906 95.453125 80.523438 C 95.453125 80.550781 96.25 80.550781 97.214844 80.539062 C 98.675781 80.511719 98.996094 80.484375 99.0625 80.371094 C 99.109375 80.292969 100.511719 77.148438 102.179688 73.386719 C 103.84375 69.625 105.273438 66.414062 105.351562 66.261719 C 105.644531 65.65625 106.042969 64.734375 106.097656 64.523438 L 106.164062 64.316406 L 104.402344 64.335938 L 102.632812 64.363281 L 101.835938 66.214844 C 101.15625 67.78125 99.828125 70.871094 99.527344 71.601562 C 99.347656 72.039062 99.394531 72.125 98.21875 69.398438 C 97.859375 68.5625 97.28125 67.230469 96.941406 66.453125 C 96.601562 65.664062 96.257812 64.867188 96.175781 64.667969 L 96.03125 64.316406 L 94.261719 64.316406 C 92.625 64.316406 92.5 64.324219 92.546875 64.476562 Z M 92.546875 64.476562 "/>
</g>
</svg>
